<?xml version="1.0" standalone="no"?>
<!DOCTYPE svg PUBLIC "-//W3C//DTD SVG 20010904//EN"
 "http://www.w3.org/TR/2001/REC-SVG-20010904/DTD/svg10.dtd">
<svg version="1.0" xmlns="http://www.w3.org/2000/svg"
 width="2000.000000pt" height="2660.000000pt" viewBox="0 0 2000.000000 2660.000000"
 preserveAspectRatio="xMidYMid meet">

<g transform="translate(0.000000,2660.000000) scale(0.100000,-0.100000)"
fill="#000000" stroke="none">
<path d="M6880 25100 c-1713 -478 -3190 -890 -3282 -916 l-168 -47 0 -233 c0
-201 -3 -240 -18 -281 -100 -263 -555 -634 -1239 -1009 -440 -242 -870 -433
-1456 -649 l-237 -88 3 -5101 c3 -5507 0 -5136 52 -5614 214 -1964 1057 -3868
2467 -5569 1204 -1451 2841 -2789 4738 -3870 661 -377 1501 -789 2077 -1019
l183 -72 207 83 c730 291 1660 765 2493 1270 2189 1329 3932 2929 5085 4670
1060 1601 1630 3279 1725 5075 6 128 10 1909 10 5171 0 4731 -1 4977 -17 4984
-10 4 -106 37 -213 75 -1015 356 -2000 893 -2468 1345 -112 107 -173 186 -218
280 l-34 69 0 238 c0 238 0 238 -22 248 -16 7 -6360 1777 -6538 1824 -8 2
-1417 -387 -3130 -864z m6320 -383 l3185 -903 5 -300 c4 -231 8 -305 19 -324
140 -250 680 -635 1386 -987 363 -182 602 -282 1071 -452 l299 -107 0 -4870
c0 -5072 1 -4974 -41 -5414 -295 -3156 -2169 -6053 -5407 -8362 -1121 -798
-2448 -1541 -3511 -1964 l-208 -83 -152 60 c-306 122 -731 316 -1127 514
-1626 814 -3182 1912 -4408 3110 -1847 1806 -2988 3870 -3350 6065 -50 302
-80 559 -113 980 -8 105 -12 1492 -15 5050 l-4 4906 288 109 c534 201 753 294
1093 464 664 332 1196 704 1352 945 l38 59 0 298 0 297 33 11 c17 5 1067 303
2332 661 1265 359 2685 761 3155 895 470 134 864 243 875 244 11 0 1453 -406
3205 -902z"/>
<path d="M7035 24281 l-2950 -837 -6 -159 c-6 -167 -14 -206 -66 -310 -233
-464 -1238 -1111 -2458 -1581 l-240 -92 0 -4729 c0 -4927 -1 -4798 41 -5223
183 -1867 968 -3672 2305 -5300 1088 -1325 2578 -2561 4299 -3566 596 -347
1372 -737 1922 -964 l118 -49 146 60 c558 228 1397 658 2064 1059 2143 1287
3826 2843 4927 4555 854 1328 1365 2752 1507 4205 42 425 41 296 41 5224 l0
4728 -110 40 c-781 278 -1629 726 -2130 1127 -269 215 -424 396 -493 579 -23
59 -26 87 -31 232 l-6 165 -325 91 c-179 51 -1510 428 -2958 838 -1448 410
-2636 746 -2640 745 -4 0 -1334 -377 -2957 -838z m3077 -751 c44 -13 93 -52
113 -91 8 -15 15 -54 15 -86 0 -76 -28 -135 -125 -263 l-76 -100 101 0 100 0
0 -60 0 -60 -226 0 c-177 0 -224 3 -218 13 4 6 69 91 143 187 145 187 171 228
171 273 0 35 -40 77 -74 77 -59 0 -96 -39 -96 -100 l0 -30 -65 0 -65 0 0 52
c0 60 30 131 66 155 62 40 159 54 236 33z m522 -2 c66 -20 121 -83 147 -168
18 -61 21 -89 17 -188 -5 -137 -27 -201 -88 -256 -50 -45 -98 -60 -178 -53
-124 10 -194 93 -212 255 -33 292 105 472 314 410z m538 2 c44 -13 93 -52 113
-91 9 -16 15 -55 15 -90 0 -77 -24 -128 -126 -261 l-74 -99 102 3 102 3 115
268 115 268 110 -3 111 -3 3 -212 2 -213 40 0 40 0 0 -55 0 -55 -40 0 -40 0 0
-60 0 -60 -65 0 -64 0 -3 58 -3 57 -160 0 -160 0 -3 -57 -3 -58 -225 0 c-165
0 -223 3 -218 11 4 7 69 93 146 192 77 99 146 193 154 208 44 86 -24 167 -109
128 -29 -13 -47 -48 -47 -89 l0 -30 -65 0 -65 0 0 52 c0 60 30 131 66 155 62
40 159 54 236 33z m-1902 -100 l0 -70 50 0 50 0 0 -55 0 -55 -50 0 -51 0 3
-132 3 -133 48 -3 48 -3 -3 -57 -3 -57 -60 -3 c-82 -5 -131 12 -155 51 -17 28
-20 51 -20 180 0 110 3 147 13 148 6 1 -6 5 -28 8 l-40 6 -3 53 c-3 52 -3 52
27 52 28 0 29 2 41 70 l12 70 59 0 59 0 0 -70z m-850 -70 c43 -12 93 -61 114
-112 9 -21 16 -65 16 -98 l0 -60 -155 0 -155 0 0 -31 c0 -38 48 -89 84 -89 39
0 74 17 81 39 6 19 14 21 76 21 66 0 70 -1 65 -20 -3 -11 -8 -29 -11 -39 -9
-32 -81 -89 -127 -102 -94 -25 -213 8 -261 73 -49 66 -64 177 -37 274 16 57
78 124 130 141 45 14 135 16 180 3z m507 -15 c34 -20 73 -81 73 -114 0 -19 -6
-21 -64 -21 -61 0 -66 2 -78 28 -10 21 -21 28 -49 30 -79 7 -75 -63 5 -92 25
-9 66 -23 90 -32 63 -22 94 -49 107 -95 34 -113 -73 -201 -230 -186 -82 7
-134 36 -160 90 -35 72 -32 77 49 77 54 0 70 -3 70 -14 0 -20 48 -56 75 -56
13 0 33 9 46 19 32 27 17 51 -47 74 -27 9 -68 24 -92 33 -23 9 -55 29 -71 44
-71 72 -39 194 61 228 50 17 178 9 215 -13z m638 -340 c50 -49 17 -145 -50
-145 -32 0 -85 50 -85 80 0 26 25 77 42 83 32 13 70 6 93 -18z m6235 -1585 l0
-40 -5790 0 -5790 0 0 40 0 40 5790 0 5790 0 0 -40z m-915 -1985 c238 -66 392
-246 420 -492 4 -32 9 -66 11 -75 5 -17 -9 -18 -204 -18 l-209 0 -6 45 c-7 48
-28 97 -56 129 -46 53 -157 79 -278 65 -134 -15 -193 -66 -193 -169 1 -107 50
-168 190 -233 36 -16 158 -65 273 -108 267 -101 355 -146 435 -225 100 -100
142 -224 128 -384 -22 -269 -178 -439 -466 -510 -181 -45 -458 -36 -630 21
-269 88 -430 292 -430 546 l0 73 210 0 c209 0 210 0 210 -22 0 -49 34 -139 67
-178 67 -78 158 -105 333 -98 188 7 260 52 268 169 5 72 -15 116 -73 158 -53
38 -98 58 -288 127 -421 152 -594 293 -643 523 -27 129 -11 277 42 385 68 139
227 242 432 281 103 19 372 13 457 -10z m-10545 -200 l0 -195 -365 0 -365 0 0
-215 0 -215 328 -2 327 -3 3 -192 2 -193 -327 -2 -328 -3 -3 -377 -2 -378
-215 0 -215 0 0 985 0 985 580 0 580 0 0 -195z m710 -590 l0 -785 355 0 355 0
0 -200 0 -200 -570 0 -570 0 0 985 0 985 215 0 215 0 0 -785z m2150 590 l0
-195 -390 0 -390 0 0 -190 0 -190 345 0 345 0 0 -195 0 -195 -345 0 -345 0 0
-210 0 -210 400 0 400 0 0 -195 0 -195 -615 0 -615 0 0 985 0 985 605 0 605 0
0 -195z m1520 0 l0 -195 -390 0 -390 0 0 -190 0 -190 345 0 345 0 0 -195 0
-195 -345 0 -345 0 0 -210 0 -210 405 0 405 0 0 -195 0 -195 -620 0 -620 0 0
985 0 985 605 0 605 0 0 -195z m1610 0 l0 -195 -245 0 -245 0 0 -790 0 -790
-215 0 -215 0 0 735 c0 811 -2 786 62 825 l33 20 -292 0 -293 0 0 195 0 195
705 0 705 0 0 -195z m1470 0 l0 -195 -395 0 -395 0 0 -190 0 -190 350 0 350 0
0 -195 0 -195 -350 0 -350 0 0 -210 0 -210 405 0 405 0 0 -195 0 -195 -615 0
-615 0 0 985 0 985 605 0 605 0 0 -195z m1688 -783 c161 -537 293 -980 292
-985 0 -4 -102 -6 -227 -5 l-227 3 -62 220 -61 220 -341 3 c-188 1 -342 0
-342 -3 0 -3 -22 -85 -49 -183 -27 -97 -54 -196 -60 -219 l-12 -43 -230 0
c-215 0 -230 1 -225 18 8 26 540 1796 565 1880 l22 72 332 0 332 0 293 -978z
m3362 783 l0 -195 -390 0 -390 0 0 -190 0 -190 345 0 345 0 0 -195 0 -195
-345 0 -345 0 0 -210 0 -210 405 0 405 0 0 -195 0 -195 -620 0 -620 0 0 985 0
985 605 0 605 0 0 -195z m-922 -3982 l-3 -38 -5787 -3 -5788 -2 0 40 0 40
5791 0 5790 0 -3 -37z m-6338 -2478 l0 -245 -106 -373 c-59 -204 -109 -378
-111 -384 -4 -10 18 -13 90 -13 l94 0 16 -42 c9 -24 62 -169 117 -323 56 -154
103 -282 105 -284 3 -2 66 -8 142 -12 575 -37 1072 -126 1518 -274 566 -187
1018 -447 1623 -933 284 -228 1079 -916 1377 -1192 582 -539 836 -902 940
-1345 59 -253 77 -492 79 -1040 l1 -430 -33 -67 c-57 -117 -179 -207 -357
-267 -83 -27 -244 -65 -250 -59 -2 2 8 44 20 93 180 711 -220 1437 -914 1659
-165 52 -226 61 -431 61 -197 0 -239 -6 -404 -56 -620 -189 -1033 -809 -966
-1449 10 -100 44 -259 65 -312 7 -17 -108 -18 -2323 -18 l-2330 0 19 60 c40
130 53 229 53 405 0 135 -5 190 -22 267 -122 558 -534 967 -1087 1083 -175 37
-426 30 -610 -16 -654 -166 -1100 -794 -1035 -1457 10 -102 43 -259 66 -316 7
-17 4 -18 -32 -12 -195 35 -368 151 -443 300 -56 111 -64 176 -57 484 25 1120
208 2010 561 2739 195 402 408 706 700 999 463 464 1028 771 1739 944 150 37
162 42 197 77 20 21 177 191 350 378 172 187 317 343 323 347 6 4 44 8 84 8
39 0 72 2 72 5 0 2 -49 181 -110 397 l-110 393 0 233 0 232 690 0 690 0 0
-245z m-3058 -5728 c208 -55 375 -151 529 -306 104 -104 160 -181 219 -300 81
-160 120 -328 120 -511 0 -824 -830 -1378 -1597 -1066 -201 82 -403 251 -522
436 -300 466 -235 1064 160 1451 162 160 377 272 602 315 117 22 368 12 489
-19z m7272 -1 c125 -32 298 -116 401 -193 563 -421 623 -1244 128 -1736 -107
-106 -179 -158 -308 -222 -429 -213 -943 -137 -1295 193 -224 209 -346 470
-366 779 -29 449 228 889 642 1096 173 87 321 118 539 113 132 -3 177 -8 259
-30z"/>
<path d="M10522 23400 c-41 -17 -56 -72 -57 -200 0 -131 18 -187 66 -204 81
-28 122 40 122 199 1 113 -13 166 -50 195 -28 22 -45 24 -81 10z"/>
<path d="M11589 23343 c-20 -49 -52 -124 -71 -168 l-35 -80 76 3 76 3 -3 127
c-4 223 -2 215 -43 115z"/>
<path d="M8275 23238 c-14 -13 -30 -38 -35 -56 -8 -30 -7 -33 8 -26 9 5 52 10
95 12 65 3 78 6 73 19 -3 8 -6 19 -6 24 0 5 -9 18 -20 29 -27 27 -82 26 -115
-2z"/>
<path d="M12841 19103 c-6 -21 -28 -113 -50 -204 -31 -130 -135 -515 -167
-621 -5 -17 11 -18 235 -18 133 0 241 4 241 8 0 5 -25 98 -56 208 -31 109 -82
302 -114 428 -31 127 -61 231 -68 234 -6 2 -15 -14 -21 -35z"/>
<path d="M8440 12685 c0 -102 2 -113 105 -482 58 -208 111 -393 116 -410 l11
-33 228 0 c209 0 229 1 234 18 3 9 55 191 116 404 l110 387 0 111 0 110 -460
0 -460 0 0 -105z m659 -192 c-10 -38 -47 -167 -82 -288 l-63 -220 -51 -3 -52
-3 -20 68 c-59 201 -141 493 -141 502 0 8 71 11 214 11 l214 0 -19 -67z"/>
<path d="M8161 11291 c-116 -126 -211 -231 -211 -233 0 -3 44 1 98 8 258 33
512 46 995 51 273 3 497 7 497 9 0 1 -27 78 -61 171 -34 92 -66 180 -71 196
l-10 27 -513 0 -513 0 -211 -229z"/>
<path d="M8639 10880 c-608 -26 -1096 -107 -1529 -256 -222 -76 -220 -75 -220
-101 0 -12 -164 -351 -365 -753 l-365 -730 -460 0 -460 0 -45 -89 c-347 -691
-534 -1595 -558 -2701 -5 -188 -4 -192 8 -112 32 203 75 341 156 506 229 463
668 790 1180 877 163 28 439 23 592 -10 565 -121 1025 -530 1206 -1069 63
-190 76 -274 76 -520 l0 -222 2033 0 2032 0 -7 28 c-4 15 -8 106 -7 202 0 190
19 319 71 483 182 578 675 1006 1277 1109 170 29 450 22 606 -15 326 -77 561
-208 796 -442 301 -300 455 -652 471 -1077 3 -94 10 -158 16 -158 5 0 29 19
52 43 37 36 44 50 50 99 11 86 -13 914 -30 1056 -31 253 -80 432 -165 602
-180 358 -484 681 -1346 1427 -725 628 -978 832 -1289 1040 -865 579 -1773
798 -3285 791 -173 0 -394 -4 -491 -8z m1731 -597 c352 -87 603 -267 813 -582
314 -469 487 -1264 487 -2236 0 -541 -77 -852 -255 -1031 -75 -76 -137 -112
-245 -141 -60 -17 -142 -18 -1155 -18 -1230 0 -1139 -5 -1321 80 -559 261
-1103 1114 -1253 1960 -77 436 -40 758 124 1100 193 401 543 763 838 866 l82
29 900 -3 c876 -3 902 -4 985 -24z m2497 -1134 c27 -10 573 -545 573 -561 0
-5 -279 -7 -619 -6 l-620 3 -30 29 c-54 51 -50 131 7 176 23 19 42 20 371 20
l346 0 -82 83 c-44 45 -86 92 -92 104 -25 49 -2 121 47 147 32 18 61 20 99 5z"/>
<path d="M8455 10055 c-95 -39 -191 -111 -316 -235 -184 -184 -322 -388 -409
-607 -38 -96 -90 -287 -79 -297 5 -4 341 -13 2267 -57 750 -17 1366 -28 1369
-25 4 3 -10 63 -31 134 -167 570 -449 926 -839 1057 -160 53 -194 55 -1082 55
l-820 0 -60 -25z"/>
<path d="M7640 8623 c0 -32 7 -105 14 -163 81 -602 386 -1234 790 -1636 145
-144 254 -223 381 -276 l80 -33 1088 -3 c698 -1 1102 1 1125 8 236 63 335 402
318 1080 -9 353 -32 627 -77 912 l-12 77 -51 5 c-28 3 -391 12 -806 21 -1079
23 -2400 53 -2642 60 l-208 6 0 -58z m1340 -313 c1588 -48 1957 -60 1989 -66
19 -3 47 -18 63 -34 23 -23 28 -37 28 -75 0 -40 -5 -52 -34 -81 l-34 -34 -104
0 c-56 0 -377 9 -713 20 -335 10 -767 24 -960 30 -1102 35 -1089 35 -1116 53
-66 44 -64 161 3 194 39 19 50 21 138 16 47 -2 380 -13 740 -23z"/>
<path d="M6478 10341 c-146 -82 -478 -320 -504 -362 -3 -5 78 -9 193 -9 l198
0 103 206 c57 114 101 208 100 210 -2 2 -42 -18 -90 -45z"/>
<path d="M5684 9688 c-89 -99 -304 -391 -304 -413 0 -3 143 -4 318 -3 l317 3
112 220 c62 121 112 226 113 233 0 9 -57 12 -254 12 l-254 0 -48 -52z"/>
<path d="M6077 6834 c-360 -65 -657 -356 -731 -717 -21 -98 -21 -276 0 -375
73 -355 361 -643 716 -716 88 -18 257 -21 344 -5 204 36 406 150 538 304 370
434 271 1082 -212 1386 -192 120 -428 164 -655 123z"/>
<path d="M13353 6835 c-473 -86 -804 -524 -752 -999 41 -384 300 -689 676
-798 68 -20 100 -23 243 -22 150 0 173 3 253 27 326 100 563 352 643 683 26
105 24 305 -4 418 -87 350 -362 614 -717 687 -104 22 -237 23 -342 4z"/>
</g>
</svg>
